<svg width="20" height="19" viewBox="0 0 20 19" fill="none" xmlns="http://www.w3.org/2000/svg">
<path d="M3 9.5H17M3 9.5C2.46957 9.5 1.96086 9.28929 1.58579 8.91421C1.21071 8.53914 1 8.03043 1 7.5V3.5C1 2.96957 1.21071 2.46086 1.58579 2.08579C1.96086 1.71071 2.46957 1.5 3 1.5H17C17.5304 1.5 18.0391 1.71071 18.4142 2.08579C18.7893 2.46086 19 2.96957 19 3.5V7.5C19 8.03043 18.7893 8.53914 18.4142 8.91421C18.0391 9.28929 17.5304 9.5 17 9.5M3 9.5C2.46957 9.5 1.96086 9.71071 1.58579 10.0858C1.21071 10.4609 1 10.9696 1 11.5V15.5C1 16.0304 1.21071 16.5391 1.58579 16.9142C1.96086 17.2893 2.46957 17.5 3 17.5H17C17.5304 17.5 18.0391 17.2893 18.4142 16.9142C18.7893 16.5391 19 16.0304 19 15.5V11.5C19 10.9696 18.7893 10.4609 18.4142 10.0858C18.0391 9.71071 17.5304 9.5 17 9.5M15 5.5H5.01M5 13.5H15.01" stroke="#3F3F46" stroke-width="2" stroke-linecap="round" stroke-linejoin="round"/>
</svg>
