<svg width="25" height="25" viewBox="0 0 25 25" fill="none" xmlns="http://www.w3.org/2000/svg">
<path d="M4.516 21.484C3.36988 20.377 2.45569 19.0529 1.82678 17.5889C1.19787 16.1248 0.866838 14.5502 0.852992 12.9568C0.839146 11.3635 1.14277 9.78331 1.74614 8.30855C2.34951 6.83379 3.24055 5.49397 4.36726 4.36726C5.49397 3.24055 6.83379 2.34951 8.30855 1.74614C9.78331 1.14277 11.3635 0.839146 12.9568 0.852992C14.5502 0.866838 16.1248 1.19787 17.5889 1.82678C19.0529 2.45569 20.377 3.36988 21.484 4.516C23.6699 6.77922 24.8794 9.81045 24.8521 12.9568C24.8247 16.1032 23.5627 19.1129 21.3378 21.3378C19.1129 23.5627 16.1032 24.8247 12.9568 24.8521C9.81045 24.8794 6.77922 23.6699 4.516 21.484ZM19.792 19.792C21.5933 17.9906 22.6053 15.5475 22.6053 13C22.6053 10.4525 21.5933 8.00935 19.792 6.208C17.9906 4.40665 15.5475 3.39466 13 3.39466C10.4525 3.39466 8.00935 4.40665 6.208 6.208C4.40665 8.00935 3.39466 10.4525 3.39466 13C3.39466 15.5475 4.40665 17.9906 6.208 19.792C8.00935 21.5933 10.4525 22.6053 13 22.6053C15.5475 22.6053 17.9906 21.5933 19.792 19.792ZM11.8 14.2V11.8H14.2V19H11.8V14.2ZM11.8 7H14.2V9.4H11.8V7Z" fill="#14B8A6"/>
</svg>
