<svg width="20" height="20" viewBox="0 0 20 20" fill="none" xmlns="http://www.w3.org/2000/svg">
<path d="M8.00003 8H3.2361C1.74934 8 0.782345 9.56463 1.44725 10.8944L4.94725 17.8944C5.28603 18.572 5.97856 19 6.7361 19H10.7538C10.9173 19 11.0803 18.9799 11.2389 18.9403L15 18M8.00003 8V3C8.00003 1.89543 8.89546 1 10 1H10.0955C10.5951 1 11 1.40497 11 1.90453C11 2.61883 11.2115 3.31715 11.6077 3.91149L15 9V18M8.00003 8H10M15 18H17C18.1046 18 19 17.1046 19 16V10C19 8.89543 18.1046 8 17 8H14.5" stroke="#111827" stroke-linecap="round" stroke-linejoin="round"/>
</svg>
