<svg width="16" height="17" viewBox="0 0 16 17" fill="none" xmlns="http://www.w3.org/2000/svg">
<path d="M11.7712 11.173C11.2495 11.6947 10.2519 12.6923 9.41382 13.5304C8.63277 14.3114 7.36728 14.3115 6.58623 13.5304C5.76383 12.708 4.78309 11.7273 4.22877 11.173C2.14597 9.09016 2.14597 5.71328 4.22877 3.63049C6.31157 1.54769 9.68844 1.54769 11.7712 3.63049C13.854 5.71328 13.854 9.09016 11.7712 11.173Z" stroke="#555555" stroke-linecap="round" stroke-linejoin="round"/>
<path d="M10 7.40172C10 8.50629 9.10457 9.40172 8.00001 9.40172C6.89544 9.40172 6.00001 8.50629 6.00001 7.40172C6.00001 6.29715 6.89544 5.40172 8.00001 5.40172C9.10457 5.40172 10 6.29715 10 7.40172Z" stroke="#555555" stroke-linecap="round" stroke-linejoin="round"/>
</svg>
