<svg width="20" height="17" viewBox="0 0 20 17" fill="none" xmlns="http://www.w3.org/2000/svg">
<path d="M7 13.5V3.5M7 13.5C7 14.0304 6.78929 14.5391 6.41421 14.9142C6.03914 15.2893 5.53043 15.5 5 15.5H3C2.46957 15.5 1.96086 15.2893 1.58579 14.9142C1.21071 14.5391 1 14.0304 1 13.5V3.5C1 2.96957 1.21071 2.46086 1.58579 2.08579C1.96086 1.71071 2.46957 1.5 3 1.5H5C5.53043 1.5 6.03914 1.71071 6.41421 2.08579C6.78929 2.46086 7 2.96957 7 3.5M7 13.5C7 14.0304 7.21071 14.5391 7.58579 14.9142C7.96086 15.2893 8.46957 15.5 9 15.5H15H17C17.5304 15.5 18.0391 15.2893 18.4142 14.9142C18.7893 14.5391 19 14.0304 19 13.5V3.5C19 2.96957 18.7893 2.46086 18.4142 2.08579C18.0391 1.71071 17.5304 1.5 17 1.5H15H9C8.46957 1.5 7.96086 1.71071 7.58579 2.08579C7.21071 2.46086 7 2.96957 7 3.5" stroke="#3F3F46" stroke-width="2" stroke-linecap="round" stroke-linejoin="round"/>
</svg>
