<svg width="105" height="36" viewBox="0 0 105 36" fill="none" xmlns="http://www.w3.org/2000/svg">
<path d="M4.87675 19.748C4.87675 21.604 5.66608 22.532 7.24475 22.532C8.97275 22.532 10.1354 21.9347 10.7328 20.74C10.9461 20.3133 11.0528 19.7693 11.0528 19.108C11.0528 18.4253 10.8928 17.796 10.5728 17.22C10.0394 16.3027 9.12208 15.2893 7.82075 14.18C5.66608 12.3453 4.58875 10.4467 4.58875 8.484C4.58875 6.5 5.20742 4.97467 6.44475 3.908C7.68208 2.84133 9.10075 2.308 10.7008 2.308C12.3008 2.308 13.5701 2.71333 14.5088 3.524C15.4474 4.33467 15.9167 5.55067 15.9167 7.172C15.9167 8.23867 15.5541 9.16667 14.8288 9.956C14.1248 10.7453 13.1861 11.236 12.0128 11.428C12.5461 11.876 13.0794 12.3347 13.6128 12.804C14.1248 13.2733 14.5941 13.7853 15.0208 14.34C15.9594 15.5987 16.4288 17.1027 16.4288 18.852C16.4288 20.068 16.1408 21.1667 15.5648 22.148C15.0101 23.1293 14.2741 23.9613 13.3568 24.644C12.4608 25.3053 11.4474 25.8173 10.3168 26.18C9.18608 26.5427 8.13008 26.724 7.14875 26.724C5.05808 26.724 3.43675 26.244 2.28475 25.284C0.94075 24.196 0.26875 22.628 0.26875 20.58C0.26875 19.236 0.706083 17.9347 1.58075 16.676C2.45542 15.4173 3.38342 14.788 4.36475 14.788C5.13275 14.788 5.51675 15.0227 5.51675 15.492C5.51675 16.1747 5.41008 16.8573 5.19675 17.54C4.98342 18.2013 4.87675 18.9373 4.87675 19.748ZM11.0848 10.66C12.3008 9.444 12.9088 8.17467 12.9088 6.852C12.9088 6.44667 12.6954 6.10533 12.2688 5.828C11.7994 5.572 11.3088 5.444 10.7968 5.444C9.64475 5.444 8.81275 5.81733 8.30075 6.564C8.55675 7.48133 8.93008 8.26 9.42075 8.9C9.93275 9.54 10.4874 10.1267 11.0848 10.66ZM29.3348 15.748C29.3348 14.98 28.8761 14.596 27.9588 14.596C27.0628 14.596 26.1774 15.3 25.3028 16.708C24.4281 18.0947 23.8841 19.5133 23.6708 20.964C23.7134 21.4547 23.7561 21.9453 23.7988 22.436C23.8414 22.9267 23.8628 23.4067 23.8628 23.876C23.8628 25.0067 23.4894 25.7747 22.7428 26.18C22.4014 26.372 22.0708 26.5533 21.7508 26.724C21.4521 26.8947 21.1001 26.98 20.6948 26.98C20.2894 26.98 19.9268 26.7133 19.6068 26.18C19.3081 25.6253 19.1588 24.772 19.1588 23.62C19.1588 20.3987 19.3934 17.604 19.8628 15.236C20.5881 11.5667 22.0281 7.64133 24.1828 3.46C24.4814 2.884 24.9188 2.60667 25.4948 2.628C26.0708 2.628 26.5401 3.02267 26.9028 3.812C27.2654 4.60133 27.4361 5.26267 27.4148 5.796C27.4148 6.32933 27.3294 6.852 27.1588 7.364C27.0094 7.85467 26.8068 8.34533 26.5508 8.836C26.3161 9.30533 26.0388 9.796 25.7188 10.308C25.4201 10.7987 25.1214 11.332 24.8228 11.908L24.3428 14.212C25.1748 12.8253 26.2948 11.8973 27.7028 11.428C28.2148 11.2573 28.7801 11.172 29.3988 11.172C30.8494 11.172 31.9481 11.5027 32.6948 12.164C33.4414 12.804 33.8148 13.7213 33.8148 14.916C33.8148 16.0893 33.6548 17.284 33.3348 18.5C33.0361 19.716 32.8121 20.5907 32.6628 21.124C32.5348 21.636 32.4708 22.0627 32.4708 22.404C32.4708 22.7453 32.5881 22.916 32.8228 22.916C33.1428 22.916 33.5374 22.7133 34.0068 22.308C34.4761 21.9027 34.9454 21.4653 35.4148 20.996C35.8841 20.5053 36.3108 20.0573 36.6948 19.652C37.1001 19.2467 37.3774 19.044 37.5268 19.044C37.8254 19.044 37.9748 19.4067 37.9748 20.132C37.9748 21.6253 37.2388 23.0653 35.7668 24.452C33.2921 25.9027 31.7134 26.628 31.0308 26.628C30.9668 26.628 30.9241 26.6173 30.9028 26.596C29.1961 26.596 28.3428 25.2307 28.3428 22.5C28.3428 21.3267 28.4494 20.2493 28.6628 19.268C28.8974 18.2867 29.0681 17.572 29.1748 17.124C29.2814 16.676 29.3348 16.2173 29.3348 15.748ZM41.0383 21.124L41.2303 25.028C41.2303 25.54 40.9636 25.9987 40.4303 26.404C39.8969 26.8093 39.1716 27.012 38.2543 27.012C37.7209 27.012 37.3476 26.7347 37.1343 26.18C36.9423 25.6253 36.8463 24.8147 36.8463 23.748C36.8463 21.508 36.9529 19.7587 37.1663 18.5C37.4009 17.22 37.8489 15.9293 38.5103 14.628C37.5289 13.6893 37.0383 12.8787 37.0383 12.196C37.0383 10.7667 37.8063 10.052 39.3423 10.052C40.1316 10.052 40.8249 10.468 41.4223 11.3C41.8489 11.876 42.1583 12.548 42.3503 13.316C42.6489 13.4227 43.0223 13.476 43.4703 13.476C44.0889 13.476 44.8036 13.2733 45.6143 12.868L46.4463 12.452C46.7023 12.324 46.9263 12.26 47.1183 12.26C47.7369 12.26 48.3556 13.1667 48.9743 14.98C48.7823 15.812 48.5689 16.612 48.3343 17.38C48.1209 18.148 47.8649 19.076 47.5663 20.164C47.2676 21.252 47.1076 21.988 47.0863 22.372C47.0863 22.7347 47.2036 22.916 47.4383 22.916C47.7583 22.916 48.1529 22.7133 48.6223 22.308C49.0916 21.9027 49.5609 21.4653 50.0303 20.996C50.4996 20.5053 50.9263 20.0573 51.3103 19.652C51.7156 19.2467 51.9929 19.044 52.1423 19.044C52.4409 19.044 52.5903 19.4067 52.5903 20.132C52.5903 21.604 51.9396 23.0547 50.6383 24.484C49.3583 25.9133 47.8863 26.6173 46.2223 26.596C45.2409 26.596 44.5049 26.2013 44.0143 25.412C43.5236 24.6227 43.2676 23.6627 43.2463 22.532C43.2463 20.292 43.7476 18.1693 44.7503 16.164C44.2809 16.356 43.7476 16.452 43.1503 16.452C42.5743 16.452 42.1583 16.4307 41.9023 16.388C41.7103 17.1987 41.5183 18.02 41.3263 18.852C41.1343 19.6627 41.0383 20.42 41.0383 21.124ZM54.8313 26.596C52.6979 26.596 51.6313 24.6013 51.6313 20.612C51.6313 18.436 51.8979 16.4627 52.4313 14.692C53.2633 11.9613 54.2019 10.596 55.2473 10.596C55.8659 10.596 56.3566 11.012 56.7193 11.844C57.0179 12.484 57.1566 13.1133 57.1353 13.732C57.1353 14.5853 56.8793 16.0893 56.3673 18.244C55.8766 20.1213 55.6313 21.284 55.6313 21.732C55.6313 22.18 55.7379 22.4893 55.9513 22.66C56.1859 22.8307 56.4526 22.916 56.7513 22.916C57.0713 22.916 57.4659 22.7133 57.9353 22.308C58.4046 21.9027 58.8739 21.4653 59.3433 20.996C59.8126 20.5053 60.2393 20.0573 60.6233 19.652C61.0286 19.2467 61.3059 19.044 61.4553 19.044C61.7539 19.044 61.9033 19.4067 61.9033 20.132C61.9033 21.6253 61.1459 23.0867 59.6313 24.516C58.1379 25.924 56.5379 26.6173 54.8313 26.596ZM56.1433 8.004C55.5673 7.15067 55.2793 6.23333 55.2793 5.252C55.2793 4.27067 55.4286 3.46 55.7273 2.82C56.0473 2.15867 56.3459 1.67867 56.6233 1.38C56.9006 1.06 57.2206 0.9 57.5833 0.9C58.1806 0.9 58.7246 1.348 59.2153 2.244C59.7059 3.11867 59.9513 3.85467 59.9513 4.452C59.9513 5.56133 59.5566 6.436 58.7673 7.076C57.9993 7.69467 57.1246 8.004 56.1433 8.004ZM77.8398 16.772C77.8398 16.068 77.4344 15.716 76.6238 15.716C76.0691 15.716 75.4504 16.26 74.7678 17.348C74.0851 18.4147 73.5944 19.5667 73.2958 20.804V20.868C73.2958 21.5933 73.4024 22.34 73.6158 23.108C73.8504 23.876 73.9678 24.4093 73.9678 24.708C73.9678 25.4333 73.0611 26.148 71.2478 26.852C70.9704 26.9587 70.7251 27.012 70.5118 27.012C69.9784 27.012 69.6051 26.7347 69.3918 26.18C69.1998 25.6253 69.1038 24.8787 69.1038 23.94C69.1038 22.98 69.1251 22.084 69.1678 21.252C69.2318 20.3987 69.2851 19.62 69.3278 18.916C69.3918 18.1907 69.4451 17.5613 69.4878 17.028C69.5518 16.4733 69.5838 16.0253 69.5838 15.684C69.5838 14.9587 69.2531 14.596 68.5918 14.596C67.9304 14.596 67.1624 15.3747 66.2878 16.932C65.4131 18.468 64.9758 19.6947 64.9758 20.612C64.9758 21.508 65.0824 22.34 65.2958 23.108C65.5304 23.876 65.6478 24.4093 65.6478 24.708C65.6478 25.4333 64.7411 26.148 62.9278 26.852C62.6504 26.9587 62.4051 27.012 62.1918 27.012C61.6584 27.012 61.2851 26.7347 61.0718 26.18C60.8798 25.6253 60.7838 24.772 60.7838 23.62C60.7838 20.5907 60.9011 18.404 61.1358 17.06C61.4558 15.076 62.1811 13.1987 63.3118 11.428C63.6958 10.8307 64.1118 10.532 64.5598 10.532C65.2638 10.532 65.9144 11.108 66.5118 12.26C66.6824 12.5587 66.8104 12.836 66.8958 13.092C67.9198 11.812 69.1251 11.172 70.5118 11.172C71.4291 11.172 72.2504 11.4813 72.9758 12.1C73.7011 12.6973 74.0638 13.4547 74.0638 14.372V14.724C75.3651 13.1027 76.9544 12.292 78.8318 12.292C79.9838 12.292 80.8584 12.5907 81.4558 13.188C82.0531 13.7853 82.3518 14.5213 82.3518 15.396C82.3518 16.2707 82.2878 17.06 82.1598 17.764C82.0318 18.468 81.8824 19.1293 81.7118 19.748C81.5624 20.3667 81.4238 20.9213 81.2958 21.412C81.1678 21.8813 81.1038 22.2547 81.1038 22.532C81.1038 22.788 81.1891 22.916 81.3598 22.916C81.6798 22.916 82.0744 22.7133 82.5438 22.308C83.0131 21.9027 83.4824 21.4653 83.9518 20.996C84.4211 20.5053 84.8478 20.0573 85.2318 19.652C85.6371 19.2467 85.9144 19.044 86.0638 19.044C86.3624 19.044 86.5118 19.4067 86.5118 20.132C86.5118 21.6253 85.7544 23.076 84.2398 24.484C82.7464 25.892 81.1464 26.596 79.4398 26.596C77.9038 26.596 77.1358 25.1987 77.1358 22.404C77.1358 21.7 77.2531 20.7293 77.4878 19.492C77.7224 18.2547 77.8398 17.348 77.8398 16.772ZM90.9455 13.092C92.0548 11.8333 93.4735 11.204 95.2015 11.204C97.6762 11.204 99.2442 12.2067 99.9055 14.212C100.098 14.8093 100.194 15.4707 100.194 16.196C100.194 17.8173 99.6602 19.4173 98.5935 20.996C97.5482 22.5747 96.2788 23.6413 94.7855 24.196H95.1695C96.7268 24.196 98.3055 23.62 99.9055 22.468C100.93 21.7427 101.73 20.996 102.306 20.228C102.903 19.4387 103.351 19.044 103.65 19.044C103.948 19.044 104.098 19.3853 104.098 20.068C104.098 21.2627 103.586 22.468 102.562 23.684C101.026 25.4333 99.0628 26.4573 96.6735 26.756C94.9455 26.948 93.7188 26.98 92.9935 26.852C92.2682 26.724 91.7135 26.564 91.3295 26.372C90.4975 25.9453 90.0815 25.3053 90.0815 24.452C90.0815 23.9827 90.1775 23.556 90.3695 23.172C92.0548 23.172 93.3348 22.532 94.2095 21.252C95.0842 19.972 95.5215 18.372 95.5215 16.452C95.5215 15.9827 95.3508 15.5667 95.0095 15.204C94.6682 14.82 94.2095 14.628 93.6335 14.628C93.0788 14.628 92.4708 14.8733 91.8095 15.364C91.1482 15.8547 90.6148 16.4733 90.2095 17.22C89.8255 17.9453 89.4735 18.6707 89.1535 19.396C88.8335 20.1 88.5775 20.996 88.3855 22.084C88.0442 24.0467 87.6495 26.5213 87.2015 29.508C86.7748 32.516 86.5082 34.1267 86.4015 34.34C86.2948 34.5747 86.1348 34.788 85.9215 34.98C85.7082 35.172 85.4842 35.268 85.2495 35.268C84.8228 35.268 84.4708 35.14 84.1935 34.884C83.4255 34.2227 82.9775 33.7107 82.8495 33.348C82.7215 33.0067 82.6575 32.5587 82.6575 32.004C82.6575 29.9133 83.0095 26.98 83.7135 23.204C84.4175 19.428 85.6335 15.5027 87.3615 11.428C87.6175 10.8307 88.0655 10.532 88.7055 10.532C89.3668 10.532 89.9962 11.108 90.5935 12.26C90.7642 12.5587 90.8815 12.836 90.9455 13.092Z" fill="#9D174D"/>
</svg>
