<svg width="105" height="36" viewBox="0 0 105 36" fill="none" xmlns="http://www.w3.org/2000/svg">
<path d="M5.37675 19.748C5.37675 21.604 6.16608 22.532 7.74475 22.532C9.47275 22.532 10.6354 21.9347 11.2328 20.74C11.4461 20.3133 11.5528 19.7693 11.5528 19.108C11.5528 18.4253 11.3928 17.796 11.0728 17.22C10.5394 16.3027 9.62208 15.2893 8.32075 14.18C6.16608 12.3453 5.08875 10.4467 5.08875 8.484C5.08875 6.5 5.70742 4.97467 6.94475 3.908C8.18208 2.84133 9.60075 2.308 11.2008 2.308C12.8008 2.308 14.0701 2.71333 15.0088 3.524C15.9474 4.33467 16.4167 5.55067 16.4167 7.172C16.4167 8.23867 16.0541 9.16667 15.3288 9.956C14.6248 10.7453 13.6861 11.236 12.5128 11.428C13.0461 11.876 13.5794 12.3347 14.1128 12.804C14.6248 13.2733 15.0941 13.7853 15.5208 14.34C16.4594 15.5987 16.9288 17.1027 16.9288 18.852C16.9288 20.068 16.6408 21.1667 16.0648 22.148C15.5101 23.1293 14.7741 23.9613 13.8568 24.644C12.9608 25.3053 11.9474 25.8173 10.8168 26.18C9.68608 26.5427 8.63008 26.724 7.64875 26.724C5.55808 26.724 3.93675 26.244 2.78475 25.284C1.44075 24.196 0.76875 22.628 0.76875 20.58C0.76875 19.236 1.20608 17.9347 2.08075 16.676C2.95542 15.4173 3.88342 14.788 4.86475 14.788C5.63275 14.788 6.01675 15.0227 6.01675 15.492C6.01675 16.1747 5.91008 16.8573 5.69675 17.54C5.48342 18.2013 5.37675 18.9373 5.37675 19.748ZM11.5848 10.66C12.8008 9.444 13.4088 8.17467 13.4088 6.852C13.4088 6.44667 13.1954 6.10533 12.7688 5.828C12.2994 5.572 11.8088 5.444 11.2968 5.444C10.1448 5.444 9.31275 5.81733 8.80075 6.564C9.05675 7.48133 9.43008 8.26 9.92075 8.9C10.4328 9.54 10.9874 10.1267 11.5848 10.66ZM29.8348 15.748C29.8348 14.98 29.3761 14.596 28.4588 14.596C27.5628 14.596 26.6774 15.3 25.8028 16.708C24.9281 18.0947 24.3841 19.5133 24.1708 20.964C24.2134 21.4547 24.2561 21.9453 24.2988 22.436C24.3414 22.9267 24.3628 23.4067 24.3628 23.876C24.3628 25.0067 23.9894 25.7747 23.2428 26.18C22.9014 26.372 22.5708 26.5533 22.2508 26.724C21.9521 26.8947 21.6001 26.98 21.1948 26.98C20.7894 26.98 20.4268 26.7133 20.1068 26.18C19.8081 25.6253 19.6588 24.772 19.6588 23.62C19.6588 20.3987 19.8934 17.604 20.3628 15.236C21.0881 11.5667 22.5281 7.64133 24.6828 3.46C24.9814 2.884 25.4188 2.60667 25.9948 2.628C26.5708 2.628 27.0401 3.02267 27.4028 3.812C27.7654 4.60133 27.9361 5.26267 27.9148 5.796C27.9148 6.32933 27.8294 6.852 27.6588 7.364C27.5094 7.85467 27.3068 8.34533 27.0508 8.836C26.8161 9.30533 26.5388 9.796 26.2188 10.308C25.9201 10.7987 25.6214 11.332 25.3228 11.908L24.8428 14.212C25.6748 12.8253 26.7948 11.8973 28.2028 11.428C28.7148 11.2573 29.2801 11.172 29.8988 11.172C31.3494 11.172 32.4481 11.5027 33.1948 12.164C33.9414 12.804 34.3148 13.7213 34.3148 14.916C34.3148 16.0893 34.1548 17.284 33.8348 18.5C33.5361 19.716 33.3121 20.5907 33.1628 21.124C33.0348 21.636 32.9708 22.0627 32.9708 22.404C32.9708 22.7453 33.0881 22.916 33.3228 22.916C33.6428 22.916 34.0374 22.7133 34.5068 22.308C34.9761 21.9027 35.4454 21.4653 35.9148 20.996C36.3841 20.5053 36.8108 20.0573 37.1948 19.652C37.6001 19.2467 37.8774 19.044 38.0268 19.044C38.3254 19.044 38.4748 19.4067 38.4748 20.132C38.4748 21.6253 37.7388 23.0653 36.2668 24.452C33.7921 25.9027 32.2134 26.628 31.5308 26.628C31.4668 26.628 31.4241 26.6173 31.4028 26.596C29.6961 26.596 28.8428 25.2307 28.8428 22.5C28.8428 21.3267 28.9494 20.2493 29.1628 19.268C29.3974 18.2867 29.5681 17.572 29.6748 17.124C29.7814 16.676 29.8348 16.2173 29.8348 15.748ZM41.5383 21.124L41.7303 25.028C41.7303 25.54 41.4636 25.9987 40.9303 26.404C40.3969 26.8093 39.6716 27.012 38.7543 27.012C38.2209 27.012 37.8476 26.7347 37.6343 26.18C37.4423 25.6253 37.3463 24.8147 37.3463 23.748C37.3463 21.508 37.4529 19.7587 37.6663 18.5C37.9009 17.22 38.3489 15.9293 39.0103 14.628C38.0289 13.6893 37.5383 12.8787 37.5383 12.196C37.5383 10.7667 38.3063 10.052 39.8423 10.052C40.6316 10.052 41.3249 10.468 41.9223 11.3C42.3489 11.876 42.6583 12.548 42.8503 13.316C43.1489 13.4227 43.5223 13.476 43.9703 13.476C44.5889 13.476 45.3036 13.2733 46.1143 12.868L46.9463 12.452C47.2023 12.324 47.4263 12.26 47.6183 12.26C48.2369 12.26 48.8556 13.1667 49.4743 14.98C49.2823 15.812 49.0689 16.612 48.8343 17.38C48.6209 18.148 48.3649 19.076 48.0663 20.164C47.7676 21.252 47.6076 21.988 47.5863 22.372C47.5863 22.7347 47.7036 22.916 47.9383 22.916C48.2583 22.916 48.6529 22.7133 49.1223 22.308C49.5916 21.9027 50.0609 21.4653 50.5303 20.996C50.9996 20.5053 51.4263 20.0573 51.8103 19.652C52.2156 19.2467 52.4929 19.044 52.6423 19.044C52.9409 19.044 53.0903 19.4067 53.0903 20.132C53.0903 21.604 52.4396 23.0547 51.1383 24.484C49.8583 25.9133 48.3863 26.6173 46.7223 26.596C45.7409 26.596 45.0049 26.2013 44.5143 25.412C44.0236 24.6227 43.7676 23.6627 43.7463 22.532C43.7463 20.292 44.2476 18.1693 45.2503 16.164C44.7809 16.356 44.2476 16.452 43.6503 16.452C43.0743 16.452 42.6583 16.4307 42.4023 16.388C42.2103 17.1987 42.0183 18.02 41.8263 18.852C41.6343 19.6627 41.5383 20.42 41.5383 21.124ZM55.3313 26.596C53.1979 26.596 52.1313 24.6013 52.1313 20.612C52.1313 18.436 52.3979 16.4627 52.9313 14.692C53.7633 11.9613 54.7019 10.596 55.7473 10.596C56.3659 10.596 56.8566 11.012 57.2193 11.844C57.5179 12.484 57.6566 13.1133 57.6353 13.732C57.6353 14.5853 57.3793 16.0893 56.8673 18.244C56.3766 20.1213 56.1313 21.284 56.1313 21.732C56.1313 22.18 56.2379 22.4893 56.4513 22.66C56.6859 22.8307 56.9526 22.916 57.2513 22.916C57.5713 22.916 57.9659 22.7133 58.4353 22.308C58.9046 21.9027 59.3739 21.4653 59.8433 20.996C60.3126 20.5053 60.7393 20.0573 61.1233 19.652C61.5286 19.2467 61.8059 19.044 61.9553 19.044C62.2539 19.044 62.4033 19.4067 62.4033 20.132C62.4033 21.6253 61.6459 23.0867 60.1313 24.516C58.6379 25.924 57.0379 26.6173 55.3313 26.596ZM56.6433 8.004C56.0673 7.15067 55.7793 6.23333 55.7793 5.252C55.7793 4.27067 55.9286 3.46 56.2273 2.82C56.5473 2.15867 56.8459 1.67867 57.1233 1.38C57.4006 1.06 57.7206 0.9 58.0833 0.9C58.6806 0.9 59.2246 1.348 59.7153 2.244C60.2059 3.11867 60.4513 3.85467 60.4513 4.452C60.4513 5.56133 60.0566 6.436 59.2673 7.076C58.4993 7.69467 57.6246 8.004 56.6433 8.004ZM78.3398 16.772C78.3398 16.068 77.9344 15.716 77.1238 15.716C76.5691 15.716 75.9504 16.26 75.2678 17.348C74.5851 18.4147 74.0944 19.5667 73.7958 20.804V20.868C73.7958 21.5933 73.9024 22.34 74.1158 23.108C74.3504 23.876 74.4678 24.4093 74.4678 24.708C74.4678 25.4333 73.5611 26.148 71.7478 26.852C71.4704 26.9587 71.2251 27.012 71.0118 27.012C70.4784 27.012 70.1051 26.7347 69.8918 26.18C69.6998 25.6253 69.6038 24.8787 69.6038 23.94C69.6038 22.98 69.6251 22.084 69.6678 21.252C69.7318 20.3987 69.7851 19.62 69.8278 18.916C69.8918 18.1907 69.9451 17.5613 69.9878 17.028C70.0518 16.4733 70.0838 16.0253 70.0838 15.684C70.0838 14.9587 69.7531 14.596 69.0918 14.596C68.4304 14.596 67.6624 15.3747 66.7878 16.932C65.9131 18.468 65.4758 19.6947 65.4758 20.612C65.4758 21.508 65.5824 22.34 65.7958 23.108C66.0304 23.876 66.1478 24.4093 66.1478 24.708C66.1478 25.4333 65.2411 26.148 63.4278 26.852C63.1504 26.9587 62.9051 27.012 62.6918 27.012C62.1584 27.012 61.7851 26.7347 61.5718 26.18C61.3798 25.6253 61.2838 24.772 61.2838 23.62C61.2838 20.5907 61.4011 18.404 61.6358 17.06C61.9558 15.076 62.6811 13.1987 63.8118 11.428C64.1958 10.8307 64.6118 10.532 65.0598 10.532C65.7638 10.532 66.4144 11.108 67.0118 12.26C67.1824 12.5587 67.3104 12.836 67.3958 13.092C68.4198 11.812 69.6251 11.172 71.0118 11.172C71.9291 11.172 72.7504 11.4813 73.4758 12.1C74.2011 12.6973 74.5638 13.4547 74.5638 14.372V14.724C75.8651 13.1027 77.4544 12.292 79.3318 12.292C80.4838 12.292 81.3584 12.5907 81.9558 13.188C82.5531 13.7853 82.8518 14.5213 82.8518 15.396C82.8518 16.2707 82.7878 17.06 82.6598 17.764C82.5318 18.468 82.3824 19.1293 82.2118 19.748C82.0624 20.3667 81.9238 20.9213 81.7958 21.412C81.6678 21.8813 81.6038 22.2547 81.6038 22.532C81.6038 22.788 81.6891 22.916 81.8598 22.916C82.1798 22.916 82.5744 22.7133 83.0438 22.308C83.5131 21.9027 83.9824 21.4653 84.4518 20.996C84.9211 20.5053 85.3478 20.0573 85.7318 19.652C86.1371 19.2467 86.4144 19.044 86.5638 19.044C86.8624 19.044 87.0118 19.4067 87.0118 20.132C87.0118 21.6253 86.2544 23.076 84.7398 24.484C83.2464 25.892 81.6464 26.596 79.9398 26.596C78.4038 26.596 77.6358 25.1987 77.6358 22.404C77.6358 21.7 77.7531 20.7293 77.9878 19.492C78.2224 18.2547 78.3398 17.348 78.3398 16.772ZM91.4455 13.092C92.5548 11.8333 93.9735 11.204 95.7015 11.204C98.1762 11.204 99.7442 12.2067 100.406 14.212C100.598 14.8093 100.694 15.4707 100.694 16.196C100.694 17.8173 100.16 19.4173 99.0935 20.996C98.0482 22.5747 96.7788 23.6413 95.2855 24.196H95.6695C97.2268 24.196 98.8055 23.62 100.406 22.468C101.43 21.7427 102.23 20.996 102.806 20.228C103.403 19.4387 103.851 19.044 104.15 19.044C104.448 19.044 104.598 19.3853 104.598 20.068C104.598 21.2627 104.086 22.468 103.062 23.684C101.526 25.4333 99.5628 26.4573 97.1735 26.756C95.4455 26.948 94.2188 26.98 93.4935 26.852C92.7682 26.724 92.2135 26.564 91.8295 26.372C90.9975 25.9453 90.5815 25.3053 90.5815 24.452C90.5815 23.9827 90.6775 23.556 90.8695 23.172C92.5548 23.172 93.8348 22.532 94.7095 21.252C95.5842 19.972 96.0215 18.372 96.0215 16.452C96.0215 15.9827 95.8508 15.5667 95.5095 15.204C95.1682 14.82 94.7095 14.628 94.1335 14.628C93.5788 14.628 92.9708 14.8733 92.3095 15.364C91.6482 15.8547 91.1148 16.4733 90.7095 17.22C90.3255 17.9453 89.9735 18.6707 89.6535 19.396C89.3335 20.1 89.0775 20.996 88.8855 22.084C88.5442 24.0467 88.1495 26.5213 87.7015 29.508C87.2748 32.516 87.0082 34.1267 86.9015 34.34C86.7948 34.5747 86.6348 34.788 86.4215 34.98C86.2082 35.172 85.9842 35.268 85.7495 35.268C85.3228 35.268 84.9708 35.14 84.6935 34.884C83.9255 34.2227 83.4775 33.7107 83.3495 33.348C83.2215 33.0067 83.1575 32.5587 83.1575 32.004C83.1575 29.9133 83.5095 26.98 84.2135 23.204C84.9175 19.428 86.1335 15.5027 87.8615 11.428C88.1175 10.8307 88.5655 10.532 89.2055 10.532C89.8668 10.532 90.4962 11.108 91.0935 12.26C91.2642 12.5587 91.3815 12.836 91.4455 13.092Z" fill="white"/>
</svg>
