<svg width="214" height="105" viewBox="0 0 214 105" fill="none" xmlns="http://www.w3.org/2000/svg">
<path d="M187.063 105H92.7832H31.4266C20.951 105 0 98.7176 0 73.588C0 48.4585 24.4429 42.1761 31.4266 42.1761H61.3566C60.8578 39.1844 61.3566 28.4204 71.8322 19.7389C88.7509 5.71775 106.751 15.2515 112.238 19.7389C116.228 10.7641 130.196 -5.39066 154.14 1.78922C178.084 8.9691 181.077 27.7166 179.58 36.1928C191.054 37.19 214 45.4668 214 70.5964C214 95.726 196.042 104.003 187.063 105Z" fill="#518DF7"/>
<path d="M169.667 80.75L160.333 71.5M160.333 71.5L169.667 62.25M160.333 71.5L193 71.5M181.333 80.75V83.0625C181.333 86.894 178.199 90 174.333 90H158C154.134 90 151 86.894 151 83.0625V59.9375C151 56.106 154.134 53 158 53H174.333C178.199 53 181.333 56.106 181.333 59.9375V62.25" stroke="#D1D5DB" stroke-width="2" stroke-linecap="round" stroke-linejoin="round"/>
</svg>
