<svg width="292" height="143" viewBox="0 0 292 143" fill="none" xmlns="http://www.w3.org/2000/svg">
<path d="M36.7552 143H165.399H249.119C263.413 143 292 134.444 292 100.22C292 65.9958 258.648 57.4398 249.119 57.4398H208.28C208.96 53.3655 208.28 38.7058 193.986 26.8825C170.901 7.78703 146.34 20.7711 138.853 26.8825C133.408 14.6596 114.35 -7.34156 81.6783 2.43675C49.007 12.2151 44.9231 37.7473 46.965 49.2912C31.31 50.6493 0 61.9215 0 96.1456C0 130.37 24.5035 141.642 36.7552 143Z" fill="#518DF7"/>
<path d="M53 84.75V80M53 84.75C50.3766 84.75 48.25 86.8766 48.25 89.5C48.25 92.1234 50.3766 94.25 53 94.25M53 84.75C55.6234 84.75 57.75 86.8766 57.75 89.5C57.75 92.1234 55.6234 94.25 53 94.25M38.75 113.25C41.3734 113.25 43.5 111.123 43.5 108.5C43.5 105.877 41.3734 103.75 38.75 103.75M38.75 113.25C36.1266 113.25 34 111.123 34 108.5C34 105.877 36.1266 103.75 38.75 103.75M38.75 113.25V118M38.75 103.75V80M53 94.25V118M67.25 113.25C69.8734 113.25 72 111.123 72 108.5C72 105.877 69.8734 103.75 67.25 103.75M67.25 113.25C64.6266 113.25 62.5 111.123 62.5 108.5C62.5 105.877 64.6266 103.75 67.25 103.75M67.25 113.25V118M67.25 103.75V80" stroke="#D1D5DB" stroke-width="2" stroke-linecap="round" stroke-linejoin="round"/>
</svg>
