<svg width="18" height="20" viewBox="0 0 18 20" fill="none" xmlns="http://www.w3.org/2000/svg">
<path d="M12 14.9949H17L15.595 13.5913C15.4063 13.4028 15.2567 13.179 15.1546 12.9327C15.0525 12.6864 15 12.4224 15 12.1558V9.00098C15.0002 7.76116 14.6156 6.55179 13.8992 5.53935C13.1829 4.52692 12.17 3.76122 11 3.34768V3.00702C11 2.47712 10.7893 1.96892 10.4142 1.59423C10.0391 1.21953 9.53043 1.00903 9 1.00903C8.46957 1.00903 7.96086 1.21953 7.58579 1.59423C7.21071 1.96892 7 2.47712 7 3.00702V3.34768C4.67 4.17085 3 6.39161 3 9.00098V12.1568C3 12.6943 2.786 13.2107 2.405 13.5913L1 14.9949H6M12 14.9949H6M12 14.9949V15.9939C12 16.7888 11.6839 17.5511 11.1213 18.1131C10.5587 18.6752 9.79565 18.9909 9 18.9909C8.20435 18.9909 7.44129 18.6752 6.87868 18.1131C6.31607 17.5511 6 16.7888 6 15.9939V14.9949" stroke="#9CA3AF" stroke-width="2" stroke-linecap="round" stroke-linejoin="round"/>
</svg>
