<svg width="292" height="143" viewBox="0 0 292 143" fill="none" xmlns="http://www.w3.org/2000/svg">
<path d="M36.7552 143H165.399H249.119C263.413 143 292 134.444 292 100.22C292 65.9958 258.648 57.4398 249.119 57.4398H208.28C208.96 53.3655 208.28 38.7058 193.986 26.8825C170.901 7.78703 146.34 20.7711 138.853 26.8825C133.408 14.6596 114.35 -7.34156 81.6783 2.43675C49.007 12.2151 44.9231 37.7473 46.965 49.2912C31.31 50.6493 0 61.9215 0 96.1456C0 130.37 24.5035 141.642 36.7552 143Z" fill="#518DF7"/>
<path d="M27 88.1429L48.48 102.421C50.3088 103.637 52.6913 103.637 54.52 102.421L76 88.1429M32.4444 118H70.5556C73.5624 118 76 115.57 76 112.571V85.4286C76 82.4305 73.5624 80 70.5556 80H32.4444C29.4376 80 27 82.4305 27 85.4286V112.571C27 115.57 29.4376 118 32.4444 118Z" stroke="#D1D5DB" stroke-width="2" stroke-linecap="round" stroke-linejoin="round"/>
</svg>
